<?xml version="1.0" encoding="UTF-8"?>
<svg version="1.1" xmlns="http://www.w3.org/2000/svg" width="128" height="128">
<path d="M0 0 C42.24 0 84.48 0 128 0 C128 42.24 128 84.48 128 128 C85.76 128 43.52 128 0 128 C0 85.76 0 43.52 0 0 Z " fill="#111111" transform="translate(0,0)"/>
<path d="M0 0 C1.23234375 -0.02578125 2.4646875 -0.0515625 3.734375 -0.078125 C7.46167326 0.26975617 9.30051074 0.99964894 12.25 3.25 C13.9614999 6.67299979 13.66683634 10.49847297 13.25 14.25 C12.27418241 15.60113205 11.27970259 16.93946944 10.25 18.25 C11.00680483 21.20153885 12.2638601 23.27104682 13.9375 25.8125 C15.25 28.25 15.25 28.25 14.9375 30.5625 C14.710625 31.119375 14.48375 31.67625 14.25 32.25 C12.453125 32.05859375 12.453125 32.05859375 10.25 31.25 C8.546875 29.03515625 8.546875 29.03515625 7 26.3125 C6.47921875 25.41660156 5.9584375 24.52070312 5.421875 23.59765625 C4.25 21.25 4.25 21.25 4.25 19.25 C2.6 19.25 0.95 19.25 -0.75 19.25 C-0.75 17.93 -0.75 16.61 -0.75 15.25 C1.89 14.92 4.53 14.59 7.25 14.25 C7.25 11.28 7.25 8.31 7.25 5.25 C3.95 4.92 0.65 4.59 -2.75 4.25 C-2.75 13.16 -2.75 22.07 -2.75 31.25 C-4.4 31.58 -6.05 31.91 -7.75 32.25 C-7.77465504 27.85343827 -7.79283842 23.4569128 -7.80493164 19.06030273 C-7.80997121 17.56355082 -7.81680287 16.06680384 -7.82543945 14.57006836 C-7.83752159 12.42300193 -7.84323191 10.27600038 -7.84765625 8.12890625 C-7.85289307 6.8354126 -7.85812988 5.54191895 -7.86352539 4.20922852 C-7.65597424 -1.20093816 -4.80050395 0.05975731 0 0 Z " fill="#EEEEEE" transform="translate(20.75,47.75)"/>
<path d="M0 0 C1.32 0 2.64 0 4 0 C4.02505615 0.78238037 4.0501123 1.56476074 4.07592773 2.37084961 C4.19149788 5.89324949 4.31439949 9.4153556 4.4375 12.9375 C4.47681641 14.16919922 4.51613281 15.40089844 4.55664062 16.66992188 C4.59853516 17.83974609 4.64042969 19.00957031 4.68359375 20.21484375 C4.72025146 21.29886475 4.75690918 22.38288574 4.79467773 23.49975586 C4.72364265 25.939263 4.72364265 25.939263 6 27 C8.97 27 11.94 27 15 27 C15.33 18.42 15.66 9.84 16 1 C17.32 0.67 18.64 0.34 20 0 C22.71155355 2.71155355 21.2845398 10.66462651 21.3125 14.3125 C21.34150391 15.56224609 21.37050781 16.81199219 21.40039062 18.09960938 C21.40876953 19.30037109 21.41714844 20.50113281 21.42578125 21.73828125 C21.44036377 22.84212158 21.45494629 23.94596191 21.4699707 25.08325195 C20.8915488 28.67307349 19.86778311 29.82985562 17 32 C13.90625 32.49609375 13.90625 32.49609375 10.5 32.4375 C9.3759375 32.43621094 8.251875 32.43492188 7.09375 32.43359375 C3.626955 31.94771718 2.41789428 31.49268781 0 29 C-0.45410156 25.99731445 -0.45410156 25.99731445 -0.390625 22.36328125 C-0.37773438 21.06455078 -0.36484375 19.76582031 -0.3515625 18.42773438 C-0.31814101 17.05597897 -0.28428123 15.68423419 -0.25 14.3125 C-0.22993376 12.92906188 -0.21168319 11.54559616 -0.1953125 10.16210938 C-0.14809207 6.77404351 -0.08224069 3.38736759 0 0 Z " fill="#F8F7F8" transform="translate(65,48)"/>
<path d="M0 0 C1.98 0.495 1.98 0.495 4 1 C4.33 4.96 4.66 8.92 5 13 C8.63 8.71 12.26 4.42 16 0 C17.32 0.33 18.64 0.66 20 1 C19.44719887 4.99859483 17.46604577 6.98807717 14.75 9.875 C13.94046875 10.75929688 13.1309375 11.64359375 12.296875 12.5546875 C10.99822506 13.9372638 9.68515417 15.30748962 8.328125 16.6328125 C4.20347896 20.87877165 4.12248168 25.36584251 4 31 C2.0625 31.5625 2.0625 31.5625 0 32 C-1.88319268 30.11680732 -1.13054285 26.88069863 -1.1328125 24.375 C-1.13376923 23.71290527 -1.13472595 23.05081055 -1.13571167 22.36865234 C-1.13639326 20.96647039 -1.13454042 19.5642853 -1.13037109 18.16210938 C-1.12502246 16.00904287 -1.1303167 13.85618498 -1.13671875 11.703125 C-1.13605796 10.34374954 -1.13477679 8.9843742 -1.1328125 7.625 C-1.13168457 6.37976562 -1.13055664 5.13453125 -1.12939453 3.8515625 C-1 1 -1 1 0 0 Z " fill="#F1F1F1" transform="translate(93,48)"/>
<path d="M0 0 C1.32 0 2.64 0 4 0 C6.31 4.29 8.62 8.58 11 13 C14.465 6.565 14.465 6.565 18 0 C20.475 0.495 20.475 0.495 23 1 C21.6075493 4.71320186 19.87035928 8.04269889 17.9375 11.5 C14.63814793 17.95420696 14.02314734 23.82432558 14 31 C12.35 31.33 10.7 31.66 9 32 C9.020625 31.23558594 9.04125 30.47117187 9.0625 29.68359375 C8.9043845 21.47147016 6.92961359 15.9403395 2.79492188 9.02709961 C0.76076195 5.61399628 0 4.09485582 0 0 Z " fill="#EEEEEE" transform="translate(38,48)"/>
<path d="M0 0 C1.32 0.33 2.64 0.66 4 1 C4 9.91 4 18.82 4 28 C2.68 28.33 1.36 28.66 0 29 C0 28.34 0 27.68 0 27 C0.99 27 1.98 27 3 27 C3 26.34 3 25.68 3 25 C2.01 25 1.02 25 0 25 C0 16.75 0 8.5 0 0 Z " fill="#F9F9F9" transform="translate(82,48)"/>
<path d="M0 0 C1.64574566 -0.02688151 3.29161413 -0.04634123 4.9375 -0.0625 C5.85402344 -0.07410156 6.77054688 -0.08570313 7.71484375 -0.09765625 C10 0 10 0 11 1 C11.0979057 2.49738124 11.12974864 3.99942892 11.125 5.5 C11.12757812 6.3146875 11.13015625 7.129375 11.1328125 7.96875 C11 10 11 10 10 11 C7.32941149 11.14115161 4.67567762 11.04247107 2 11 C1.855625 9.9275 1.71125 8.855 1.5625 7.75 C1.16110027 5.07400181 0.68482607 2.60118809 0 0 Z " fill="#232323" transform="translate(18,52)"/>
<path d="M0 0 C0.33 0 0.66 0 1 0 C1 7.92 1 15.84 1 24 C1.99 24 2.98 24 4 24 C4 24.66 4 25.32 4 26 C3.01 26 2.02 26 1 26 C1 26.66 1 27.32 1 28 C1.99 28.33 2.98 28.66 4 29 C0.36804504 31.42130331 -1.38349348 31.21022785 -5.6875 31.125 C-6.86699219 31.10695313 -8.04648438 31.08890625 -9.26171875 31.0703125 C-10.16535156 31.04710938 -11.06898437 31.02390625 -12 31 C-11.34 29.68 -10.68 28.36 -10 27 C-7.03 26.67 -4.06 26.34 -1 26 C-0.67 17.42 -0.34 8.84 0 0 Z " fill="#DDDDDD" transform="translate(81,49)"/>
<path d="M0 0 C1.32 0.33 2.64 0.66 4 1 C3.40773357 4.78876322 1.72332392 6.93470393 -0.75 9.8125 C-1.42546875 10.62332031 -2.1009375 11.43414062 -2.796875 12.26953125 C-5 14 -5 14 -7.765625 13.76171875 C-8.50296875 13.51035156 -9.2403125 13.25898437 -10 13 C-7.37288552 8.05484333 -3.73354706 4.12224511 0 0 Z " fill="#E9E9E9" transform="translate(109,48)"/>
<path d="M0 0 C0.99 0 1.98 0 3 0 C5.078125 2.51953125 5.078125 2.51953125 7.25 5.8125 C8.34054688 7.43091797 8.34054688 7.43091797 9.453125 9.08203125 C9.96359375 10.04496094 10.4740625 11.00789063 11 12 C10.67 12.99 10.34 13.98 10 15 C7.04179592 14.66548025 6.08722255 14.0955792 4.04296875 11.85546875 C3.43066406 10.97503906 2.81835938 10.09460938 2.1875 9.1875 C1.56230469 8.31480469 0.93710938 7.44210938 0.29296875 6.54296875 C-1 4 -1 4 -0.69921875 1.67578125 C-0.46847656 1.12277344 -0.23773438 0.56976563 0 0 Z " fill="#EEEEEE" transform="translate(104,64)"/>
<path d="M0 0 C2.94897721 2.74559948 5.26205705 5.34117274 7 9 C6.6875 11.3125 6.6875 11.3125 6 13 C4.171875 12.81640625 4.171875 12.81640625 2 12 C0.515625 9.71484375 0.515625 9.71484375 -0.75 6.9375 C-1.39195313 5.55884766 -1.39195313 5.55884766 -2.046875 4.15234375 C-2.36140625 3.44207031 -2.6759375 2.73179688 -3 2 C-2.01 2 -1.02 2 0 2 C0 1.34 0 0.68 0 0 Z " fill="#F1F1F1" transform="translate(29,67)"/>
<path d="M0 0 C0.99 0 1.98 0 3 0 C5 3 5 3 5 6 C3.35 5.67 1.7 5.34 0 5 C-0.5625 3.0625 -0.5625 3.0625 -1 1 C-0.67 0.67 -0.34 0.34 0 0 Z " fill="#EFEFEF" transform="translate(104,64)"/>
<path d="M0 0 C0.66 0.33 1.32 0.66 2 1 C2.73075648 3.3140622 3.40138258 5.64828869 4 8 C1 9 1 9 -2 8 C-2 6.68 -2 5.36 -2 4 C-1.01 4 -0.02 4 1 4 C0.01 3.34 -0.98 2.68 -2 2 C-1.34 1.34 -0.68 0.68 0 0 Z " fill="#1C1C1C" transform="translate(36,47)"/>
<path d="M0 0 C0.99 1.32 1.98 2.64 3 4 C2.01 4.495 2.01 4.495 1 5 C0.67 5.99 0.34 6.98 0 8 C-1.32 6.35 -2.64 4.7 -4 3 C-2.68 2.01 -1.36 1.02 0 0 Z " fill="#E3E3E3" transform="translate(45,55)"/>
<path d="M0 0 C0.99 0.99 1.98 1.98 3 3 C2.67 3.99 2.34 4.98 2 6 C0.68 5.67 -0.64 5.34 -2 5 C-2 3.68 -2 2.36 -2 1 C-1.34 0.67 -0.68 0.34 0 0 Z " fill="#E3E3E3" transform="translate(112,73)"/>
<path d="M0 0 C1.65 0.33 3.3 0.66 5 1 C5 1.66 5 2.32 5 3 C4.01 3 3.02 3 2 3 C0.29467677 4.94009522 0.29467677 4.94009522 -1 7 C-1.66 6.67 -2.32 6.34 -3 6 C-2.01 4.02 -1.02 2.04 0 0 Z " fill="#DBDBDB" transform="translate(56,48)"/>
<path d="M0 0 C1.10844919 3.32534757 0.84454356 5.62182575 0 9 C-0.66 9 -1.32 9 -2 9 C-2.125 5.625 -2.125 5.625 -2 2 C-1.34 1.34 -0.68 0.68 0 0 Z " fill="#222222" transform="translate(99,67)"/>
<path d="M0 0 C1.65 0 3.3 0 5 0 C4.67 1.32 4.34 2.64 4 4 C2.68 4 1.36 4 0 4 C0 2.68 0 1.36 0 0 Z " fill="#E4E4E4" transform="translate(20,63)"/>
</svg>
